<svg width="34" height="34" viewBox="0 0 34 34" fill="none" xmlns="http://www.w3.org/2000/svg">
<path d="M10.0086 31.2187H11.5573V33.2837H7.4273V30.7025L7.23629 30.3256C7.01947 29.8971 6.91105 29.4222 6.91105 28.9421V25.0289L7.4273 23.4802H5.87855C5.59462 23.4802 5.3623 23.2478 5.3623 22.9639L5.75982 21.7662C5.83209 21.5545 6.02827 21.4152 6.25025 21.4152H7.94355L9.29613 18.71C9.73494 17.8375 10.6281 17.2852 11.6038 17.2852H21.8358C22.8116 17.2852 23.7098 17.8375 24.1435 18.71L25.4961 21.4152H27.1894C27.4113 21.4152 27.6075 21.5597 27.6798 21.7662L28.0773 22.9639C28.0773 23.2478 27.845 23.4802 27.5611 23.4802H26.0123L26.5286 25.0289V28.9421C26.5286 29.4222 26.415 29.8971 26.2033 30.3256L26.0123 30.7025V33.2837H21.8823V31.2187H23.4311" stroke="#E20015" stroke-width="1.2" stroke-linecap="round" stroke-linejoin="round"/>
<path d="M11.041 31.2188H22.3985" stroke="#E20015" stroke-width="1.2" stroke-linecap="round" stroke-linejoin="round"/>
<path d="M8.97559 26.5725H12.0731L11.5568 25.54" stroke="#E20015" stroke-width="1.2" stroke-linecap="round" stroke-linejoin="round"/>
<path d="M24.4637 26.5725H21.3662L21.8825 25.54" stroke="#E20015" stroke-width="1.2" stroke-linecap="round" stroke-linejoin="round"/>
<path d="M14.1387 28.6377H19.3012" stroke="#E20015" stroke-width="1.2" stroke-linecap="round" stroke-linejoin="round"/>
<path d="M11.5566 22.4424H21.8816" stroke="#E20015" stroke-width="1.2" stroke-linecap="round" stroke-linejoin="round"/>
<path d="M0.71582 33.2839V7.47137L16.7196 1.27637L32.7233 7.47137V33.2839" stroke="#E20015" stroke-width="1.2" stroke-linecap="square" stroke-linejoin="round"/>
<path d="M30.6588 14.1827H2.78125L8.46 10.0527H24.98L30.6588 14.1827Z" stroke="#E20015" stroke-width="1.2" stroke-linecap="square" stroke-linejoin="round"/>
</svg>
