<svg width="26" height="26" viewBox="0 0 26 26" fill="none" xmlns="http://www.w3.org/2000/svg">
<path d="M13 24.625C19.4203 24.625 24.625 19.4203 24.625 13C24.625 6.57969 19.4203 1.375 13 1.375C6.57969 1.375 1.375 6.57969 1.375 13C1.375 19.4203 6.57969 24.625 13 24.625Z" stroke="#E20015" stroke-width="1.5" stroke-linecap="round" stroke-linejoin="round"/>
<path d="M13 14.125C13.6213 14.125 14.125 13.6213 14.125 13C14.125 12.3787 13.6213 11.875 13 11.875C12.3787 11.875 11.875 12.3787 11.875 13C11.875 13.6213 12.3787 14.125 13 14.125Z" stroke="#E20015" stroke-width="1.5" stroke-linecap="round" stroke-linejoin="round"/>
<path d="M9.25 9.25L11.875 11.875" stroke="#E20015" stroke-width="1.5" stroke-linecap="round" stroke-linejoin="round"/>
<path d="M19 7L14.125 11.875" stroke="#E20015" stroke-width="1.5" stroke-linecap="round" stroke-linejoin="round"/>
<path d="M13 4.375V5.875" stroke="#E20015" stroke-width="1.5" stroke-linecap="round" stroke-linejoin="round"/>
<path d="M13 20.125V21.625" stroke="#E20015" stroke-width="1.5" stroke-linecap="round" stroke-linejoin="round"/>
<path d="M20.125 13H21.625" stroke="#E20015" stroke-width="1.5" stroke-linecap="round" stroke-linejoin="round"/>
<path d="M4.375 13H5.875" stroke="#E20015" stroke-width="1.5" stroke-linecap="round" stroke-linejoin="round"/>
</svg>
