<svg width="36" height="32" viewBox="0 0 36 32" fill="none" xmlns="http://www.w3.org/2000/svg">
<path d="M17.4395 12.5839L29.6811 1.8487C30.3587 1.2663 31.3667 1.3055 31.9995 1.9383C32.6323 2.5711 32.6715 3.5847 32.0891 4.2623L20.7995 15.9439" stroke="#E20015" stroke-width="1.2" stroke-linecap="round" stroke-linejoin="round"/>
<path d="M32 7.54395V14.2639C32 15.1935 32.7504 15.9439 33.68 15.9439C34.6096 15.9439 35.36 15.1935 35.36 14.2639V13.7039" stroke="#E20015" stroke-width="1.2" stroke-linecap="round" stroke-linejoin="round"/>
<path d="M14.6396 13.144L20.7996 18.744" stroke="#E20015" stroke-width="1.2" stroke-linecap="round" stroke-linejoin="round"/>
<path d="M8.19957 31.0637C10.2099 31.0637 11.8396 29.434 11.8396 27.4237C11.8396 25.4134 10.2099 23.7837 8.19957 23.7837C6.18925 23.7837 4.55957 25.4134 4.55957 27.4237C4.55957 29.434 6.18925 31.0637 8.19957 31.0637Z" stroke="#E20015" stroke-width="1.2" stroke-linecap="square" stroke-linejoin="round"/>
<path d="M28.9193 31.0637C30.9296 31.0637 32.5593 29.434 32.5593 27.4237C32.5593 25.4134 30.9296 23.7837 28.9193 23.7837C26.909 23.7837 25.2793 25.4134 25.2793 27.4237C25.2793 29.434 26.909 31.0637 28.9193 31.0637Z" stroke="#E20015" stroke-width="1.2" stroke-linecap="square" stroke-linejoin="round"/>
<path d="M11.8396 22.6638H13.5196C14.1356 22.6638 14.6396 22.1598 14.6396 21.5438V5.86377H6.32925C4.92925 5.86377 3.67485 6.73177 3.18205 8.04217L0.779648 14.443C0.684448 14.695 0.639648 14.9582 0.639648 15.227V21.5382C0.639648 22.1542 1.14365 22.6582 1.75965 22.6582" stroke="#E20015" stroke-width="1.2" stroke-linecap="round" stroke-linejoin="round"/>
<path d="M11.28 18.7441H9.04004" stroke="#E20015" stroke-width="1.2" stroke-linecap="round" stroke-linejoin="round"/>
<path d="M11.2796 9.22363V12.046C11.2796 12.3876 11.1228 12.7068 10.8596 12.9196L8.78757 14.5772C8.59157 14.734 8.33957 14.8236 8.08757 14.8236H4.55957" stroke="#E20015" stroke-width="1.2" stroke-linecap="round" stroke-linejoin="round"/>
<path d="M23.0401 26.584H14.0801" stroke="#E20015" stroke-width="1.2" stroke-linecap="round" stroke-linejoin="round"/>
<path d="M2.38086 26.5839C2.78966 23.7335 5.23686 21.5439 8.19926 21.5439C11.1617 21.5439 13.6145 23.7335 14.0177 26.5839" stroke="#E20015" stroke-width="1.2" stroke-linecap="round" stroke-linejoin="round"/>
<path d="M34.7996 26.5841H35.3596V22.6641L30.8796 18.7441H14.6396" stroke="#E20015" stroke-width="1.2" stroke-linecap="round" stroke-linejoin="round"/>
<path d="M1.75965 22.6641H1.19965C0.891648 22.6641 0.639648 22.9161 0.639648 23.2241V26.0241C0.639648 26.3321 0.891648 26.5841 1.19965 26.5841H2.31965" stroke="#E20015" stroke-width="1.2" stroke-linecap="round" stroke-linejoin="round"/>
<path d="M12.96 22.6641H24.72" stroke="#E20015" stroke-width="1.2" stroke-linecap="round" stroke-linejoin="round"/>
</svg>
