<svg width="78" height="78" viewBox="0 0 78 78" fill="none" xmlns="http://www.w3.org/2000/svg">
<g clip-path="url(#clip0_1_9694)">
<path d="M23.4 71.4002H27V76.2002H17.4V70.2002L16.956 69.3242C16.452 68.3282 16.2 67.2242 16.2 66.1082V57.0122L17.4 53.4122H13.8C13.14 53.4122 12.6 52.8722 12.6 52.2122L13.524 49.4282C13.692 48.9362 14.148 48.6122 14.664 48.6122H18.6L21.744 42.3242C22.764 40.2962 24.84 39.0122 27.108 39.0122H50.892C53.16 39.0122 55.248 40.2962 56.256 42.3242L59.4 48.6122H63.336C63.852 48.6122 64.308 48.9482 64.476 49.4282L65.4 52.2122C65.4 52.8722 64.86 53.4122 64.2 53.4122H60.6L61.8 57.0122V66.1082C61.8 67.2242 61.536 68.3282 61.044 69.3242L60.6 70.2002V76.2002H51V71.4002H54.6" stroke="#E20015" stroke-width="2" stroke-linecap="round" stroke-linejoin="round"/>
<path d="M25.8 71.4004H52.2" stroke="#E20015" stroke-width="2" stroke-linecap="round" stroke-linejoin="round"/>
<path d="M21 60.6002H28.2L27 58.2002" stroke="#E20015" stroke-width="2" stroke-linecap="round" stroke-linejoin="round"/>
<path d="M57 60.6002H49.8L51 58.2002" stroke="#E20015" stroke-width="2" stroke-linecap="round" stroke-linejoin="round"/>
<path d="M33 65.4004H45" stroke="#E20015" stroke-width="2" stroke-linecap="round" stroke-linejoin="round"/>
<path d="M27 51.0005H51" stroke="#E20015" stroke-width="2" stroke-linecap="round" stroke-linejoin="round"/>
<path d="M11.4 15.0005V33.0005" stroke="#E20015" stroke-width="2" stroke-linecap="square" stroke-linejoin="round"/>
<path d="M66.6 15.0005V33.0005" stroke="#E20015" stroke-width="2" stroke-linecap="square" stroke-linejoin="round"/>
<path d="M19.8 33.0005H1.80002L3.78002 35.6405C4.74002 36.9245 4.74002 38.6765 3.78002 39.9605L3.42002 40.4405C2.46002 41.7245 2.46002 43.4765 3.42002 44.7605L3.78002 45.2405C4.74002 46.5245 4.74002 48.2765 3.78002 49.5605L3.42002 50.0405C2.46002 51.3245 2.46002 53.0765 3.42002 54.3605L3.78002 54.8405C4.74002 56.1245 4.74002 57.8765 3.78002 59.1605L3.42002 59.6405C2.46002 60.9245 2.46002 62.6765 3.42002 63.9605L3.78002 64.4405C4.74002 65.7245 4.74002 67.4765 3.78002 68.7605L1.80002 71.4005H11.4" stroke="#E20015" stroke-width="2" stroke-linecap="round" stroke-linejoin="round"/>
<path d="M58.2 33.0005H76.2L74.22 35.6405C73.26 36.9245 73.26 38.6765 74.22 39.9605L74.58 40.4405C75.54 41.7245 75.54 43.4765 74.58 44.7605L74.22 45.2405C73.26 46.5245 73.26 48.2765 74.22 49.5605L74.58 50.0405C75.54 51.3245 75.54 53.0765 74.58 54.3605L74.22 54.8405C73.26 56.1245 73.26 57.8765 74.22 59.1605L74.58 59.6405C75.54 60.9245 75.54 62.6765 74.58 63.9605L74.22 64.4405C73.26 65.7245 73.26 67.4765 74.22 68.7605L76.2 71.4005H66.6" stroke="#E20015" stroke-width="2" stroke-linecap="round" stroke-linejoin="round"/>
<path d="M31.8 21.0005C31.8 22.9925 30.192 24.6005 28.2 24.6005C26.208 24.6005 24.6 22.9925 24.6 21.0005C24.6 19.0085 28.2 15.0005 28.2 15.0005C28.2 15.0005 31.8 19.0085 31.8 21.0005Z" stroke="#E20015" stroke-width="2" stroke-linecap="square" stroke-linejoin="round"/>
<path d="M52.2 21.0005C52.2 22.9925 50.592 24.6005 48.6 24.6005C46.608 24.6005 45 22.9925 45 21.0005C45 19.0085 48.6 15.0005 48.6 15.0005C48.6 15.0005 52.2 19.0085 52.2 21.0005Z" stroke="#E20015" stroke-width="2" stroke-linecap="square" stroke-linejoin="round"/>
<path d="M42.6 30.6001C42.6 32.5921 40.992 34.2001 39 34.2001C37.008 34.2001 35.4 32.5921 35.4 30.6001C35.4 28.6081 39 24.6001 39 24.6001C39 24.6001 42.6 28.6081 42.6 30.6001Z" stroke="#E20015" stroke-width="2" stroke-linecap="square" stroke-linejoin="round"/>
<path d="M76.2 10.2003H1.80002V5.40029C3.20402 3.99629 3.99602 3.20429 5.40002 1.80029H72.6C74.004 3.20429 74.796 3.99629 76.2 5.40029V10.2003Z" stroke="#E20015" stroke-width="2" stroke-linecap="round" stroke-linejoin="round"/>
</g>
<defs>
<clipPath id="clip0_1_9694">
<rect width="76.8" height="76.8" fill="white" transform="translate(0.600006 0.600098)"/>
</clipPath>
</defs>
</svg>
