<svg
  width="40"
  height="40"
  viewBox="0 0 40 40"
  fill="none"
  xmlns="http://www.w3.org/2000/svg"
>
  <path
    d="M8 21.3V18.2C8 17.5 8.45 16.87 9.11 16.65L11.16 15.97L12.53 13.29C12.88 12.63 13.57 12.2 14.32 12.2H25.68C26.43 12.2 27.12 12.63 27.47 13.29L28.84 15.97L30.89 16.65C31.55 16.87 32 17.5 32 18.2V21.3"
    stroke="#E20015"
    stroke-width="1.8"
    stroke-linecap="round"
    stroke-linejoin="round"
  />
  <circle
    cx="11.5"
    cy="23.2"
    r="1.6"
    stroke="#E20015"
    stroke-width="1.8"
  />
  <circle
    cx="28.5"
    cy="23.2"
    r="1.6"
    stroke="#E20015"
    stroke-width="1.8"
  />
  <path
    d="M15 19.6H25"
    stroke="#E20015"
    stroke-width="1.8"
    stroke-linecap="round"
  />
  <path
    d="M22.8 26.4H27.2C29.3 26.4 31 28.1 31 30.2C31 32.3 29.3 34 27.2 34H14.3L10.1 29.8C9.4 29.1 9.4 28 10.1 27.3C10.8 26.6 11.9 26.6 12.6 27.3L14.4 29.1V24C14.4 23.2 15 22.6 15.8 22.6C16.6 22.6 17.2 23.2 17.2 24V27.8"
    stroke="#E20015"
    stroke-width="1.8"
    stroke-linecap="round"
    stroke-linejoin="round"
  />
  <path
    d="M17.2 27.8V22.6C17.2 21.8 17.8 21.2 18.6 21.2C19.4 21.2 20 21.8 20 22.6V27"
    stroke="#E20015"
    stroke-width="1.8"
    stroke-linecap="round"
    stroke-linejoin="round"
  />
  <path
    d="M20 27V23.2C20 22.4 20.6 21.8 21.4 21.8C22.1 21.8 22.8 22.4 22.8 23.2V26.4"
    stroke="#E20015"
    stroke-width="1.8"
    stroke-linecap="round"
    stroke-linejoin="round"
  />
  <path
    d="M34.5 9.2C34.5 10.91 33.11 12.3 31.4 12.3C29.69 12.3 28.3 10.91 28.3 9.2C28.3 7.44 31.4 4.8 31.4 4.8C31.4 4.8 34.5 7.44 34.5 9.2Z"
    stroke="#E20015"
    stroke-width="1.8"
    stroke-linecap="round"
    stroke-linejoin="round"
  />
</svg>
