<svg width="40" height="40" viewBox="0 0 40 40" fill="none" xmlns="http://www.w3.org/2000/svg">
<path d="M12.1997 7.3999C12.1997 3.7519 15.1517 1.3999 18.7997 1.3999H21.1997C24.8477 1.3999 27.7997 3.7519 27.7997 7.3999" stroke="#E20015" stroke-width="1.2" stroke-linecap="round" stroke-linejoin="round"/>
<path d="M28.4 9.79995L27.71 11.1859C27.434 11.7439 26.78 11.9959 26.198 11.7619C24.878 11.2279 22.442 10.3999 20 10.3999C17.27 10.3999 15.044 11.1619 13.826 11.6899C13.238 11.9479 12.554 11.7079 12.272 11.1319L11.606 9.79395" stroke="#E20015" stroke-width="1.2" stroke-linecap="round" stroke-linejoin="round"/>
<path d="M15.1997 7.9999C15.1997 7.9999 19.0997 7.3999 19.9997 7.3999C20.8997 7.3999 24.7997 7.9999 24.7997 7.9999" stroke="#E20015" stroke-width="1.2" stroke-linecap="round" stroke-linejoin="round"/>
<path d="M12.7998 14C12.7998 14 12.9198 15.782 13.2258 17.09C13.9878 20.294 16.8318 22.4 19.9998 22.4C23.1678 22.4 25.9998 20.294 26.7678 17.09C27.0798 15.788 27.1998 14 27.1998 14" stroke="#E20015" stroke-width="1.2" stroke-linecap="round" stroke-linejoin="round"/>
<path d="M24.7999 24.8001C24.1999 23.6001 24.7999 20.6001 24.7999 20.6001" stroke="#E20015" stroke-width="1.2" stroke-linecap="round" stroke-linejoin="round"/>
<path d="M15.1997 20.6001C15.1997 20.6001 16.0517 23.0301 15.1997 24.8001" stroke="#E20015" stroke-width="1.2" stroke-linecap="round" stroke-linejoin="round"/>
<path d="M30.7998 26.0001L24.7998 23.6001" stroke="#E20015" stroke-width="1.2" stroke-linecap="round" stroke-linejoin="round"/>
<path d="M9.19971 26.0001L15.1997 23.6001" stroke="#E20015" stroke-width="1.2" stroke-linecap="round" stroke-linejoin="round"/>
<path d="M25.3996 24.2002C24.1576 26.3542 22.6636 27.2002 19.9996 27.2002C17.3356 27.2002 15.8416 26.3542 14.5996 24.2002" stroke="#E20015" stroke-width="1.2" stroke-linecap="round" stroke-linejoin="round"/>
<path d="M28.4001 30.7998H11.6001" stroke="#E20015" stroke-width="1.2" stroke-linecap="round" stroke-linejoin="round"/>
<path d="M11.6001 35.6001H28.4001" stroke="#E20015" stroke-width="1.2" stroke-linecap="round" stroke-linejoin="round"/>
<path d="M11.2939 34.9998C10.5499 37.0998 8.5519 38.5998 6.1999 38.5998C4.0819 38.5998 1.9999 37.3998 1.3999 35.5998H5.5999L6.7999 34.3998V31.9998L5.5999 30.7998H1.3999C2.2999 29.0598 4.1119 27.7998 6.1999 27.7998C8.5519 27.7998 10.5499 29.2998 11.2939 31.3998" stroke="#E20015" stroke-width="1.2" stroke-linecap="round" stroke-linejoin="round"/>
<path d="M28.7061 31.3998C29.4501 29.2998 31.4481 27.7998 33.8001 27.7998C35.8881 27.7998 37.7001 29.0658 38.6001 30.7998H35.0001L33.8001 31.9998V34.3998L35.0001 35.5998H38.6001C38.0001 37.3998 35.8881 38.5998 33.8001 38.5998C31.4481 38.5998 29.4501 37.0998 28.7061 34.9998" stroke="#E20015" stroke-width="1.2" stroke-linecap="round" stroke-linejoin="round"/>
</svg>
