<svg width="40" height="40" viewBox="0 0 40 40" fill="none" xmlns="http://www.w3.org/2000/svg">
<g clip-path="url(#clip0_0_1306)">
<path d="M39.1998 14.1586C39.1998 13.9693 39.1052 13.78 38.9429 13.6718L21.5007 1.25945C20.7029 0.691565 19.4184 0.596917 18.499 1.25945L1.05671 13.6718C0.894453 13.78 0.799805 13.9693 0.799805 14.1721L0.826847 18.864C0.826847 19.1885 1.09727 19.4589 1.42178 19.4589H5.5998C5.92431 19.4589 6.19473 19.1885 6.19473 18.864V16.7276L19.9863 6.91128L33.7914 16.6465V18.864C33.7914 19.202 34.0618 19.4724 34.3998 19.4724H38.5914C38.9159 19.4724 39.1863 19.202 39.1863 18.864V14.1586H39.1998ZM35.0083 18.269V16.3355C35.0083 16.1462 34.9136 15.9569 34.7514 15.8487L20.3378 5.68086C20.2432 5.61326 20.108 5.57269 19.9998 5.57269C19.8916 5.57269 19.7564 5.61326 19.6483 5.68086L5.24826 15.9299C5.086 16.038 4.99135 16.2138 4.99135 16.4166V18.2555H2.01671V14.4696L19.2021 2.23297C19.5942 1.94903 20.2973 1.8679 20.7976 2.23297L37.9964 14.4696V18.2555H35.0083V18.269Z" fill="#E20015"/>
<path d="M33.4802 1.31348H28.1529C27.3551 1.31348 26.7196 1.94897 26.6655 2.71967L27.8419 3.55798V2.84136C27.8419 2.66559 27.9771 2.53038 28.1529 2.53038H33.4802C33.656 2.53038 33.7912 2.66559 33.7912 2.82784V7.80362L34.981 8.64193C34.981 8.64193 34.9945 8.58784 34.9945 8.5608V2.82784C34.9945 1.98953 34.3185 1.31348 33.4802 1.31348Z" fill="#E20015"/>
<path d="M33.8049 21.1761V37.6719C33.8049 37.7801 33.7508 37.8612 33.7102 37.9018C33.6426 37.9694 33.5615 37.9964 33.4669 37.9964H6.53277C6.34347 37.9964 6.19474 37.8341 6.19474 37.6584V21.1626H5.00488V37.6584C5.00488 38.5102 5.68094 39.1998 6.53277 39.1998H33.4533C33.8725 39.1998 34.2511 39.0375 34.5485 38.7401C34.8325 38.4561 34.9947 38.064 34.9947 37.6719V21.1761H33.7914H33.8049Z" fill="#E20015"/>
<path d="M24.2591 19.0938H15.7273C14.7673 19.0938 13.9966 19.878 13.9966 20.8245V29.3563C13.9966 30.3163 14.7808 31.087 15.7273 31.087H24.2591C25.2191 31.087 25.9898 30.3028 25.9898 29.3563V20.8245C25.9898 19.8645 25.2056 19.0938 24.2591 19.0938ZM24.8 29.3563C24.8 29.6538 24.5566 29.8971 24.2591 29.8971H15.7273C15.4298 29.8971 15.1864 29.6538 15.1864 29.3563V20.8245C15.1864 20.527 15.4298 20.2836 15.7273 20.2836H24.2591C24.5566 20.2836 24.8 20.527 24.8 20.8245V29.3563Z" fill="#E20015"/>
</g>
<defs>
<clipPath id="clip0_0_1306">
<rect width="38.4" height="38.4" fill="white" transform="translate(0.799805 0.799805)"/>
</clipPath>
</defs>
</svg>
