<svg width="40" height="40" viewBox="0 0 40 40" fill="none" xmlns="http://www.w3.org/2000/svg">
<path d="M12.1998 17.6003H13.9998V20.0003H9.1998V17.0003L8.9778 16.5623C8.7258 16.0643 8.5998 15.5123 8.5998 14.9543V10.4063L9.1998 8.60625H7.3998C7.0698 8.60625 6.7998 8.33625 6.7998 8.00625L7.2618 6.61425C7.3458 6.36825 7.5738 6.20625 7.8318 6.20625H9.7998L11.3718 3.06225C11.8818 2.04825 12.9198 1.40625 14.0538 1.40625H25.9458C27.0798 1.40625 28.1238 2.04825 28.6278 3.06225L30.1998 6.20625H32.1678C32.4258 6.20625 32.6538 6.37425 32.7378 6.61425L33.1998 8.00625C33.1998 8.33625 32.9298 8.60625 32.5998 8.60625H30.7998L31.3998 10.4063V14.9543C31.3998 15.5123 31.2678 16.0643 31.0218 16.5623L30.7998 17.0003V20.0003H25.9998V17.6003H27.7998" stroke="#E20015" stroke-width="1.2" stroke-linecap="round" stroke-linejoin="round"/>
<path d="M13.3999 17.6001H26.5999" stroke="#E20015" stroke-width="1.2" stroke-linecap="round" stroke-linejoin="round"/>
<path d="M11 12.2H14.6L14 11" stroke="#E20015" stroke-width="1.2" stroke-linecap="round" stroke-linejoin="round"/>
<path d="M28.9999 12.2H25.3999L25.9999 11" stroke="#E20015" stroke-width="1.2" stroke-linecap="round" stroke-linejoin="round"/>
<path d="M17 14.6001H23" stroke="#E20015" stroke-width="1.2" stroke-linecap="round" stroke-linejoin="round"/>
<path d="M14 7.40039H26" stroke="#E20015" stroke-width="1.2" stroke-linecap="round" stroke-linejoin="round"/>
<path d="M1.3999 38.6001V14.6001H4.3999V21.8001L6.1999 24.2001V38.6001" stroke="#E20015" stroke-width="1.2" stroke-linecap="square" stroke-linejoin="round"/>
<path d="M4.3999 17.6001H9.1999" stroke="#E20015" stroke-width="1.2" stroke-linecap="square" stroke-linejoin="round"/>
<path d="M1.3999 29L6.1999 32.6" stroke="#E20015" stroke-width="1.2" stroke-linecap="round" stroke-linejoin="round"/>
<path d="M1.3999 33.2002L6.1999 36.8002" stroke="#E20015" stroke-width="1.2" stroke-linecap="round" stroke-linejoin="round"/>
<path d="M38.5998 38.6001V14.6001H35.5998V21.8001L33.7998 24.2001V38.6001" stroke="#E20015" stroke-width="1.2" stroke-linecap="square" stroke-linejoin="round"/>
<path d="M35.5998 17.6001H30.7998" stroke="#E20015" stroke-width="1.2" stroke-linecap="square" stroke-linejoin="round"/>
<path d="M38.5998 29L33.7998 32.6" stroke="#E20015" stroke-width="1.2" stroke-linecap="round" stroke-linejoin="round"/>
<path d="M38.5998 33.2002L33.7998 36.8002" stroke="#E20015" stroke-width="1.2" stroke-linecap="round" stroke-linejoin="round"/>
<path d="M15.7998 38.6001L14.1918 33.1701C13.8018 32.0061 14.6718 30.8001 15.9018 30.8001H18.2058V29.0001L17.6058 26.6001L14.0058 24.2001L13.4058 20.6001" stroke="#E20015" stroke-width="1.2" stroke-linecap="round" stroke-linejoin="round"/>
<path d="M18.7998 38.6003L17.5998 33.8003H19.3998C21.1998 33.8003 22.3998 33.2003 22.3998 31.4003V27.8003C22.4598 27.5003 22.6878 24.8963 22.3998 24.8003L21.1998 24.2003C21.1998 24.2003 22.9998 23.0003 22.9998 21.8003C22.9998 20.6003 21.7998 20.0003 21.7998 20.0003C21.7998 20.0003 19.9998 19.4003 19.3998 21.2003L18.7998 23.0003V24.2003L16.3998 23.0003L15.7998 20.6003" stroke="#E20015" stroke-width="1.2" stroke-linecap="round" stroke-linejoin="round"/>
<path d="M20 33.8003H26V38.6003" stroke="#E20015" stroke-width="1.2" stroke-linecap="round" stroke-linejoin="round"/>
</svg>
